<svg width="272" height="396" viewBox="0 0 272 396" fill="none" xmlns="http://www.w3.org/2000/svg">
<path d="M0 0V265.187C0 265.187 2.91416 317.85 38.9684 354.033C75.0227 390.217 118.938 395.485 118.938 395.485C118.938 395.485 163.651 399.03 194.368 382.382C225.085 365.734 231.439 356.617 231.439 356.617C231.439 356.617 266.358 326.444 271.966 272.853C271.503 272.531 270.934 272.395 270.375 272.473C269.815 272.552 269.306 272.838 268.95 273.275C267.764 274.963 263.562 300.763 232.523 317.31C223.53 322.179 213.648 325.201 203.462 326.195C193.276 327.19 182.994 326.138 173.223 323.101C173.223 323.101 147.03 314.946 132.916 292.185C118.803 269.425 121.056 253.351 121.056 253.351L120.701 49.4715L0 0Z" fill="white"/>
<path d="M151.943 61.7126V243.001C151.943 243.001 152.486 296.694 211.43 301.202C211.43 301.202 266.714 302.485 272 242.782V109.833L151.943 61.7126Z" fill="#E9AB21"/>
</svg>
